<svg height="512pt" viewBox="0 0 512 512" width="512pt" xmlns="http://www.w3.org/2000/svg"><path d="m10 172v330h492v-330zm336 77c0 20.433594-16.566406 37-37 37h-106c-20.433594 0-37-16.566406-37-37s16.566406-37 37-37h106c20.433594 0 37 16.566406 37 37zm0 0" fill="#f9f9f9"/><path d="m306 142h-100l81-132h98zm0 0" fill="#ff6977"/><path d="m225 10h-98l79 132h100zm0 0" fill="#ff6977"/><path d="m306 226-50 20-50-20v-84h100zm0 0" fill="#dff6fc"/><path d="m256 372h56c5.523438 0 10-4.476562 10-10s-4.476562-10-10-10h-56c-5.523438 0-10 4.476562-10 10s4.476562 10 10 10zm0 0"/><path d="m246 402c0 5.523438 4.476562 10 10 10h146c5.523438 0 10-4.476562 10-10s-4.476562-10-10-10h-146c-5.523438 0-10 4.476562-10 10zm0 0"/><path d="m376 432c-5.511719 0-10 4.488281-10 10s4.488281 10 10 10 10-4.488281 10-10-4.488281-10-10-10zm0 0"/><path d="m336 432h-80c-5.511719 0-10 4.488281-10 10s4.488281 10 10 10h80c5.511719 0 10-4.488281 10-10s-4.488281-10-10-10zm0 0"/><path d="m406 442c0 5.511719 4.488281 10 10 10h25.910156c5.511719 0 10-4.488281 10-10s-4.488281-10-10-10h-25.910156c-5.511719 0-10 4.488281-10 10zm0 0"/><path d="m170.042969 322.894531c-5.027344-2.28125-10.957031-.054687-13.238281 4.972657l-40.8125 89.949218-40.886719-89.953125c-2.285157-5.027343-8.214844-7.253906-13.242188-4.964843-5.027343 2.285156-7.253906 8.210937-4.964843 13.238281l50 110c1.621093 3.570312 5.179687 5.863281 9.101562 5.863281h.003906c3.921875 0 7.480469-2.296875 9.101563-5.867188l49.914062-110c2.28125-5.03125.050781-10.957031-4.976562-13.238281zm0 0"/><path d="m266 182c0 5.523438-4.476562 10-10 10s-10-4.476562-10-10 4.476562-10 10-10 10 4.476562 10 10zm0 0"/><path d="m502 162h-186v-17.234375l77.582031-129.628906c1.847657-3.089844 1.894531-6.9375.117188-10.066407-1.777344-3.132812-5.097657-5.070312-8.699219-5.070312h-98c-3.476562 0-6.703125 1.808594-8.523438 4.769531l-22.476562 36.628907-22.476562-36.628907c-1.820313-2.960937-5.046876-4.769531-8.523438-4.769531h-98c-3.601562 0-6.921875 1.9375-8.699219 5.066406-1.777343 3.132813-1.730469 6.980469.121094 10.070313l77.578125 129.628906v17.234375h-186c-5.523438 0-10 4.476562-10 10v330c0 5.523438 4.476562 10 10 10h492c5.523438 0 10-4.476562 10-10v-330c0-5.523438-4.476562-10-10-10zm-299.714844 73.285156 50 20c1.191406.476563 2.453125.714844 3.714844.714844s2.523438-.238281 3.714844-.714844l50-20c3.796875-1.519531 6.285156-5.195312 6.285156-9.285156v-3.074219c11.503906 3.09375 20 13.609375 20 26.074219 0 14.886719-12.113281 27-27 27h-106c-14.886719 0-27-12.113281-27-27 0-12.46875 8.496094-22.984375 20-26.074219v3.074219c0 4.089844 2.488281 7.765625 6.285156 9.285156zm13.714844-16.054687v-67.230469h80v67.230469l-40 16zm76.597656-199.230469h74.761719l-61.464844 102.707031-38.160156-62.1875zm-147.957031 0h74.761719l68.730468 112h-76.460937zm347.359375 472h-472v-310h176v20.523438c-22.609375 3.390624-40 22.941406-40 46.476562 0 25.914062 21.085938 47 47 47h106c25.914062 0 47-21.085938 47-47 0-23.535156-17.390625-43.085938-40-46.476562v-20.523438h176zm0 0"/></svg>